<?xml version="1.0" encoding="UTF-8"?>
<svg version="1.1" xmlns="http://www.w3.org/2000/svg" width="1024" height="1024">
<path d="M0 0 C337.92 0 675.84 0 1024 0 C1024 337.92 1024 675.84 1024 1024 C686.08 1024 348.16 1024 0 1024 C0 686.08 0 348.16 0 0 Z " fill="#FEFEFE" transform="translate(0,0)"/>
<path d="M0 0 C9.72318733 5.35888645 14.54089723 13.44495559 19.9375 22.9375 C20.41316406 23.7625 20.88882813 24.5875 21.37890625 25.4375 C25.37778801 32.85862227 27.6163335 40.87816251 29.9375 48.9375 C30.29972656 50.15695313 30.66195312 51.37640625 31.03515625 52.6328125 C33.87081715 62.61692653 35.54879037 72.66398264 36.9375 82.9375 C37.13859375 84.37996094 37.13859375 84.37996094 37.34375 85.8515625 C41.65924769 123.6121673 31.20320357 158.78428648 13.9375 191.9375 C13.41800781 193.00355469 12.89851562 194.06960938 12.36328125 195.16796875 C11.18012167 197.46621571 10.02544645 199.35617784 8.4375 201.375 C5.91529839 204.64197081 3.46617385 207.9512358 1.04541016 211.29345703 C-6.1005022 221.13658896 -13.62969958 230.48917439 -21.875 239.4375 C-22.42655762 240.03763916 -22.97811523 240.63777832 -23.54638672 241.25610352 C-24.07377441 241.82127686 -24.60116211 242.3864502 -25.14453125 242.96875 C-25.61093018 243.46955078 -26.0773291 243.97035156 -26.55786133 244.48632812 C-28.0625 245.9375 -28.0625 245.9375 -30.24365234 247.3684082 C-32.23122832 248.74801776 -32.23122832 248.74801776 -32.38598633 250.79174805 C-31.2939116 258.76784085 -29.34470788 266.51572035 -27.3678894 274.31045532 C-23.7890064 288.44056488 -20.50143809 302.55970415 -18.0625 316.9375 C-17.42828125 316.793125 -16.7940625 316.64875 -16.140625 316.5 C3.7246074 312.54890405 24.43918683 314.55704873 42.9375 322.9375 C44.625 324.51171875 44.625 324.51171875 45.9375 325.9375 C47.63782962 326.62417158 49.33820626 327.31072763 51.0390625 327.99609375 C56.46062808 330.68456557 60.77246167 335.65989306 64.9375 339.9375 C65.700625 340.63875 66.46375 341.34 67.25 342.0625 C68.9375 343.9375 68.9375 343.9375 68.9375 346.9375 C69.9275 347.2675 70.9175 347.5975 71.9375 347.9375 C72.081875 348.535625 72.22625 349.13375 72.375 349.75 C72.7772901 352.09844357 72.7772901 352.09844357 74.81640625 353.7734375 C85.96860605 365.15155664 87.1218442 386.37080832 87.0625 401.375 C87.06636719 402.37982422 87.07023438 403.38464844 87.07421875 404.41992188 C87.07228516 405.84981445 87.07228516 405.84981445 87.0703125 407.30859375 C87.06918457 408.17411865 87.06805664 409.03964355 87.06689453 409.93139648 C86.9375 411.9375 86.9375 411.9375 85.9375 412.9375 C85.72974439 414.59954487 85.57031745 416.26779491 85.4375 417.9375 C85.04861111 422.82638889 85.04861111 422.82638889 83.9375 423.9375 C83.66117732 425.37017304 83.41730329 426.80913335 83.1875 428.25 C82.00653294 434.52729415 79.54886274 440.13668659 76.9375 445.9375 C76.2775 445.9375 75.6175 445.9375 74.9375 445.9375 C74.83824219 446.65164063 74.73898437 447.36578125 74.63671875 448.1015625 C72.70659514 455.92988508 66.42566988 463.19406641 60.9375 468.9375 C60.2775 468.9375 59.6175 468.9375 58.9375 468.9375 C58.71964844 469.48921875 58.50179687 470.0409375 58.27734375 470.609375 C56.48094848 473.73080818 54.16147686 475.76990349 51.5 478.1875 C50.04787109 479.52554688 50.04787109 479.52554688 48.56640625 480.890625 C45.9375 482.9375 45.9375 482.9375 42.9375 482.9375 C42.9375 483.5975 42.9375 484.2575 42.9375 484.9375 C22.19963592 496.9375 22.19963592 496.9375 18.9375 496.9375 C18.9375 500.2375 18.9375 503.5375 18.9375 506.9375 C19.5975 506.9375 20.2575 506.9375 20.9375 506.9375 C21.9535777 511.24637205 22.94741177 515.56008848 23.9375 519.875 C24.22367188 521.08736328 24.50984375 522.29972656 24.8046875 523.54882812 C26.31342498 530.17649634 27.28945567 536.14035604 26.9375 542.9375 C27.5975 542.9375 28.2575 542.9375 28.9375 542.9375 C33.49997255 565.73469493 36.84499386 590.52116696 28.9375 612.9375 C28.2775 612.9375 27.6175 612.9375 26.9375 612.9375 C26.84082031 613.82308594 26.74414062 614.70867188 26.64453125 615.62109375 C25.88188221 619.19838124 24.78443933 621.08221367 22.625 624 C21.9959375 624.85464844 21.366875 625.70929687 20.71875 626.58984375 C20.1309375 627.36457031 19.543125 628.13929688 18.9375 628.9375 C17.7928125 630.484375 17.7928125 630.484375 16.625 632.0625 C15.7896875 632.990625 15.7896875 632.990625 14.9375 633.9375 C14.2775 633.9375 13.6175 633.9375 12.9375 633.9375 C12.9375 634.5975 12.9375 635.2575 12.9375 635.9375 C12.2775 635.9375 11.6175 635.9375 10.9375 635.9375 C10.6075 636.9275 10.2775 637.9175 9.9375 638.9375 C7.86618652 640.65423771 5.82424244 642.21428721 3.625 643.75 C2.67439697 644.41539795 2.67439697 644.41539795 1.70458984 645.09423828 C-17.62344474 658.36502648 -38.77842564 661.79539478 -61.84765625 658.3125 C-75.63109308 655.70811236 -89.71684856 649.47387215 -100.0625 639.9375 C-100.99255859 639.12539062 -100.99255859 639.12539062 -101.94140625 638.296875 C-109.15061701 631.63263697 -113.52966799 623.35056224 -116.0625 613.9375 C-116.289375 613.133125 -116.51625 612.32875 -116.75 611.5 C-118.43518957 597.68144556 -114.3848357 586.0210747 -106.0625 574.9375 C-104.47265625 573.1328125 -104.47265625 573.1328125 -103.0625 571.9375 C-102.4025 571.9375 -101.7425 571.9375 -101.0625 571.9375 C-101.0625 571.2775 -101.0625 570.6175 -101.0625 569.9375 C-99.48828125 568.71875 -99.48828125 568.71875 -97.375 567.4375 C-96.69050781 567.0146875 -96.00601563 566.591875 -95.30078125 566.15625 C-89.06489071 562.76079128 -83.85728222 562.57141166 -76.875 562.5625 C-75.88435547 562.53800781 -74.89371094 562.51351562 -73.87304688 562.48828125 C-62.79259358 562.44468602 -55.11241887 565.89905708 -47.203125 573.609375 C-40.76500671 580.61141606 -40.22405385 587.53276402 -40.6015625 596.83984375 C-41.00974366 601.88445548 -42.54174268 606.20847253 -46.0625 609.9375 C-47.0525 610.2675 -48.0425 610.5975 -49.0625 610.9375 C-49.3925 611.9275 -49.7225 612.9175 -50.0625 613.9375 C-52.24079768 615.21137558 -54.34745197 616.31196878 -56.625 617.375 C-57.25889648 617.68139404 -57.89279297 617.98778809 -58.54589844 618.3034668 C-60.38079743 619.18974083 -62.22153762 620.06389055 -64.0625 620.9375 C-69.43590266 623.37831425 -69.43590266 623.37831425 -74.0625 626.9375 C-74.7635438 630.03946371 -74.75976754 632.83622051 -74.0625 635.9375 C-71.33833749 639.46288678 -68.26324736 641.53725088 -64.0625 642.9375 C-64.0625 643.5975 -64.0625 644.2575 -64.0625 644.9375 C-59.66679784 645.02602235 -55.2713306 645.07839579 -50.875 645.125 C-49.64845703 645.15013672 -48.42191406 645.17527344 -47.15820312 645.20117188 C-28.08189707 645.35217166 -12.9412458 639.04129045 0.9375 625.9375 C15.21652187 611.12446593 18.62731756 595.31805806 18.3125 575.4296875 C17.87596975 563.36586233 15.4149721 551.71873311 12.9375 539.9375 C12.30426547 536.86520307 11.67584 533.7919235 11.046875 530.71875 C10.10065465 526.09899291 9.14978389 521.48047005 8.17358398 516.86694336 C8.02499939 516.16061768 7.87641479 515.45429199 7.72332764 514.7265625 C7.31795303 512.80219732 6.90944539 510.8784929 6.50073242 508.95483398 C5.9375 505.9375 5.9375 505.9375 5.9375 502.9375 C4.32681641 503.35322266 4.32681641 503.35322266 2.68359375 503.77734375 C1.24744471 504.14342096 -0.18875599 504.50929558 -1.625 504.875 C-2.32947266 505.05740234 -3.03394531 505.23980469 -3.75976562 505.42773438 C-22.40957256 510.15464397 -41.62123711 508.86988468 -60.0625 503.9375 C-61.25617188 503.62941406 -62.44984375 503.32132813 -63.6796875 503.00390625 C-66.15163053 502.34660842 -68.6104549 501.66484821 -71.0625 500.9375 C-71.0625 500.2775 -71.0625 499.6175 -71.0625 498.9375 C-71.83335937 499.03546875 -72.60421875 499.1334375 -73.3984375 499.234375 C-78.74748069 498.80097704 -82.91429711 496.53454452 -87.6875 494.1875 C-88.62851562 493.7440625 -89.56953125 493.300625 -90.5390625 492.84375 C-95.13832611 490.62251473 -98.51231618 488.65783264 -102.0625 484.9375 C-103.82791465 483.92429751 -103.82791465 483.92429751 -105.6875 483.1875 C-111.13938226 480.57702231 -115.50404563 476.86587182 -120.0625 472.9375 C-120.57506348 472.49873535 -121.08762695 472.0599707 -121.61572266 471.60791016 C-137.51772851 457.87849252 -149.6943141 441.51554596 -155.0625 420.9375 C-155.7225 420.9375 -156.3825 420.9375 -157.0625 420.9375 C-157.0625 418.9575 -157.0625 416.9775 -157.0625 414.9375 C-157.7225 414.9375 -158.3825 414.9375 -159.0625 414.9375 C-159.87649927 411.54202426 -160.6884338 408.14605803 -161.5 404.75 C-161.73009766 403.79029297 -161.96019531 402.83058594 -162.19726562 401.84179688 C-162.53081055 400.44477539 -162.53081055 400.44477539 -162.87109375 399.01953125 C-163.07532959 398.16593018 -163.27956543 397.3123291 -163.48999023 396.43286133 C-163.67891846 395.60939209 -163.86784668 394.78592285 -164.0625 393.9375 C-164.2493335 393.17276367 -164.43616699 392.40802734 -164.62866211 391.62011719 C-165.20517258 388.05529046 -165.20533405 384.53394606 -165.1953125 380.93359375 C-165.19626923 380.17329361 -165.19722595 379.41299347 -165.19821167 378.62965393 C-165.19888981 377.02857378 -165.19706112 375.42749083 -165.19287109 373.82641602 C-165.1875102 371.3796572 -165.19283228 368.93308132 -165.19921875 366.48632812 C-165.19855805 364.92708293 -165.19727705 363.36783785 -165.1953125 361.80859375 C-165.19733673 361.07934189 -165.19936096 360.35009003 -165.20144653 359.59873962 C-165.18596416 356.23775279 -165.11012395 353.15059491 -164.0625 349.9375 C-163.4025 349.9375 -162.7425 349.9375 -162.0625 349.9375 C-161.97355469 348.82761719 -161.88460938 347.71773437 -161.79296875 346.57421875 C-161.13083437 341.31758822 -159.31671689 336.65303637 -157.375 331.75 C-157.01486816 330.82670898 -156.65473633 329.90341797 -156.28369141 328.95214844 C-152.0856174 318.29764902 -147.65166328 308.35059039 -141.0625 298.9375 C-139.78094734 296.98616467 -138.51034067 295.02760259 -137.25 293.0625 C-136.66605469 292.15757812 -136.08210938 291.25265625 -135.48046875 290.3203125 C-133.93911605 287.9230003 -133.93911605 287.9230003 -133.0625 284.9375 C-131.42144798 283.24560644 -129.75076219 281.58228763 -128.0625 279.9375 C-126.47446694 278.10515416 -124.91157011 276.25071122 -123.375 274.375 C-122.60800781 273.44558594 -121.84101563 272.51617187 -121.05078125 271.55859375 C-119.06296701 269.11510971 -119.06296701 269.11510971 -118.0234375 266.80078125 C-116.8303272 264.48731128 -115.39273472 263.32071553 -113.375 261.6875 C-109.74742056 258.62611263 -106.67259988 255.34556137 -103.59765625 251.73828125 C-101.84741168 249.68519538 -100.0804511 247.73123431 -98.0625 245.9375 C-97.4025 245.9375 -96.7425 245.9375 -96.0625 245.9375 C-96.0625 244.9475 -96.0625 243.9575 -96.0625 242.9375 C-94.0866163 241.56868249 -92.08145786 240.24194891 -90.0625 238.9375 C-88.11017487 237.07158483 -86.23323844 235.20285217 -84.375 233.25 C-80.58293804 229.35909703 -76.7424716 225.72228018 -72.5 222.3125 C-71.61699219 221.59835937 -70.73398437 220.88421875 -69.82421875 220.1484375 C-68.38914464 218.99956629 -66.95250433 217.85240189 -65.49853516 216.72753906 C-59.22984963 212.21466373 -59.22984963 212.21466373 -55.4921875 205.796875 C-55.71794122 203.35873483 -56.32380993 201.2730642 -57.0625 198.9375 C-57.53397947 196.75279572 -57.99107527 194.56496134 -58.4375 192.375 C-58.83582031 190.56322266 -58.83582031 190.56322266 -59.2421875 188.71484375 C-61.47702606 178.42394429 -63.24825561 168.11670445 -64.6875 157.6875 C-64.8721582 156.3581543 -64.8721582 156.3581543 -65.06054688 155.00195312 C-69.62988951 120.84548583 -67.69077561 86.54037632 -56.015625 54.01171875 C-54.86507867 50.8371656 -54.86507867 50.8371656 -55.0625 46.9375 C-54.4025 46.9375 -53.7425 46.9375 -53.0625 46.9375 C-52.81628906 46.11636719 -52.57007813 45.29523438 -52.31640625 44.44921875 C-48.08815782 32.60748872 -41.4016737 22.26149041 -33.0625 12.9375 C-32.54042969 12.27363281 -32.01835938 11.60976562 -31.48046875 10.92578125 C-23.77043817 1.13425481 -12.09516498 -5.58803975 0 0 Z " fill="#050504" transform="translate(549.0625,173.0625)"/>
<path d="M0 0 C0.81474962 2.8952173 1.62687322 5.79112828 2.4375 8.6875 C2.66759766 9.50412109 2.89769531 10.32074219 3.13476562 11.16210938 C4.69615355 16.75142556 6.14975264 21.96657303 6.0625 27.8125 C6.05347656 28.60269531 6.04445313 29.39289063 6.03515625 30.20703125 C6.02355469 30.79871094 6.01195312 31.39039063 6 32 C6.66 32 7.32 32 8 32 C13.38850132 54.0832331 13.38850132 54.0832331 12 60 C8.57566414 64.31673854 2.96475248 66.42213162 -2.1875 67.9375 C-5.73513422 69.27771737 -7.34694997 71.29689242 -10 74 C-11.93982133 75.66761207 -13.89892434 77.31301183 -15.875 78.9375 C-17.38772189 80.18361947 -18.90022879 81.43008939 -20.40112305 82.69042969 C-21.48795276 83.58060446 -22.600504 84.44008207 -23.73364258 85.27050781 C-29.25548132 89.5132937 -31.91130173 94.69703506 -34.9375 100.875 C-35.67709961 102.33679688 -35.67709961 102.33679688 -36.43164062 103.828125 C-37.63530376 106.21207916 -38.82412564 108.60225131 -40 111 C-40.66 111 -41.32 111 -42 111 C-42.04898438 111.66386719 -42.09796875 112.32773437 -42.1484375 113.01171875 C-42.22320312 113.89472656 -42.29796875 114.77773438 -42.375 115.6875 C-42.44460938 116.55761719 -42.51421875 117.42773438 -42.5859375 118.32421875 C-43 121 -43 121 -44.01953125 123.19140625 C-45.52374831 127.50029894 -45.32838363 131.7199873 -45.3125 136.25 C-45.32861328 137.15363281 -45.34472656 138.05726563 -45.36132812 138.98828125 C-45.36525423 144.44556513 -44.68358682 148.92817096 -42.72460938 154.03076172 C-42 156 -42 156 -41.1875 159.875 C-38.6505635 170.2496265 -31.446989 180.83493079 -22.375 186.5625 C-18.9249645 188.03195956 -16.70319411 188.36128723 -13 188 C-13.39832031 187.48050781 -13.79664063 186.96101562 -14.20703125 186.42578125 C-22 176.16788321 -22 176.16788321 -22 173 C-22.66 173 -23.32 173 -24 173 C-24 171.35 -24 169.7 -24 168 C-24.66 168 -25.32 168 -26 168 C-27.47880877 156.53923207 -28.82589447 142.769984 -24 132 C-23.34 132 -22.68 132 -22 132 C-21.7215625 130.824375 -21.7215625 130.824375 -21.4375 129.625 C-19.71852921 125.2902041 -17.29384396 121.92502497 -14.55859375 118.171875 C-12.98196832 116.09572282 -12.98196832 116.09572282 -12 114 C-11.34 114 -10.68 114 -10 114 C-9.505 112.515 -9.505 112.515 -9 111 C-7.30022669 109.9866736 -5.59483895 108.97998108 -3.84765625 108.05078125 C-1.75481956 106.92454492 -1.75481956 106.92454492 0.8125 104.75 C3 103 3 103 5 103 C5.495 101.515 5.495 101.515 6 100 C10.88760013 97.36069593 14.36202751 96.65481801 20 97 C21.19088986 102.38027025 22.2919519 107.45291384 22 113 C22.66 113 23.32 113 24 113 C24 116.3 24 119.6 24 123 C24.66 123 25.32 123 26 123 C26.33808686 125.06172613 26.67027361 127.1244203 27 129.1875 C27.185625 130.33605469 27.37125 131.48460937 27.5625 132.66796875 C27.93489477 135.50415393 28.08596021 138.14719564 28 141 C28.66 141 29.32 141 30 141 C30.22786458 143.05078125 30.45572917 145.1015625 30.68359375 147.15234375 C30.81886614 149.01140229 30.81886614 149.01140229 32 150 C32.07179964 151.51928038 32.08392007 153.04167482 32.0625 154.5625 C32.05347656 155.38878906 32.04445313 156.21507812 32.03515625 157.06640625 C32.02355469 157.70449219 32.01195312 158.34257813 32 159 C32.66 159 33.32 159 34 159 C34.06058594 159.63808594 34.12117187 160.27617188 34.18359375 160.93359375 C34.26738281 161.75988281 34.35117187 162.58617187 34.4375 163.4375 C34.55931641 164.67306641 34.55931641 164.67306641 34.68359375 165.93359375 C34.78930815 167.98662025 34.78930815 167.98662025 36 169 C36.32097751 171.31817089 36.51220956 173.63779357 36.71875 175.96875 C36.79065837 177.99180593 36.79065837 177.99180593 38 179 C38.4589745 181.91510832 38.86710749 184.82458331 39.25 187.75 C40.69362369 198.37800848 42.49728481 208.9289814 44.37402344 219.48730469 C44.58446289 220.68000977 44.79490234 221.87271484 45.01171875 223.1015625 C45.20209717 224.16713379 45.39247559 225.23270508 45.58862305 226.33056641 C46 229 46 229 46 232 C21.27254609 242.88007972 -6.94651515 236.01067558 -31 227 C-34.34389346 225.69214318 -37.67595562 224.35746547 -41 223 C-41 222.34 -41 221.68 -41 221 C-41.69996094 220.74992188 -42.39992188 220.49984375 -43.12109375 220.2421875 C-53.1736781 215.90470877 -61.10470017 208.32318189 -68.5390625 200.50390625 C-70.9343638 197.8959944 -70.9343638 197.8959944 -74 196 C-75.17578125 194.22265625 -75.17578125 194.22265625 -76.3125 192.0625 C-76.73660156 191.26585937 -77.16070312 190.46921875 -77.59765625 189.6484375 C-78.06042969 188.77445313 -78.52320313 187.90046875 -79 187 C-79.53496094 186.04351563 -80.06992187 185.08703125 -80.62109375 184.1015625 C-81.15863281 183.13992188 -81.69617188 182.17828125 -82.25 181.1875 C-82.75015625 180.29417969 -83.2503125 179.40085937 -83.765625 178.48046875 C-84.85782904 176.28569165 -85.53135553 174.39343427 -86 172 C-86.66 172 -87.32 172 -88 172 C-90.18098437 167.35355505 -90.88224176 162.65618979 -91.625 157.625 C-91.75616211 156.7366748 -91.88732422 155.84834961 -92.02246094 154.93310547 C-93.73648373 142.55875132 -93.07089305 130.41088553 -92 118 C-91.34 118 -90.68 118 -90 118 C-90.061875 116.2365625 -90.061875 116.2365625 -90.125 114.4375 C-90.13983635 110.27590326 -89.31170778 106.93512333 -88 103 C-87.34 103 -86.68 103 -86 103 C-85.91492188 101.86433594 -85.82984375 100.72867188 -85.7421875 99.55859375 C-85.11915252 94.59945394 -83.29593856 90.52498482 -81.125 86.0625 C-80.77308594 85.29615234 -80.42117188 84.52980469 -80.05859375 83.74023438 C-78.06360785 79.55373051 -78.06360785 79.55373051 -77 78 C-75.515 77.505 -75.515 77.505 -74 77 C-73.95230469 76.18402344 -73.90460938 75.36804688 -73.85546875 74.52734375 C-72.69055541 69.72407092 -70.21436354 66.50248519 -67.3125 62.5625 C-66.79494141 61.83740234 -66.27738281 61.11230469 -65.74414062 60.36523438 C-58.55593234 50.40200172 -58.55593234 50.40200172 -55 47 C-54.34 47 -53.68 47 -53 47 C-52.92523438 46.44828125 -52.85046875 45.8965625 -52.7734375 45.328125 C-51.71101025 42.13011165 -49.87609875 40.24150736 -47.625 37.75 C-46.83351563 36.85796875 -46.04203125 35.9659375 -45.2265625 35.046875 C-43 33 -43 33 -40 33 C-39.77183594 32.27296875 -39.54367187 31.5459375 -39.30859375 30.796875 C-37.72759844 27.41779249 -35.8612799 25.70746528 -33.0625 23.25 C-32.0725 22.37988281 -31.0825 21.50976562 -30.0625 20.61328125 C-25.44316359 16.65447495 -20.77118032 12.77499981 -16 9 C-15.47664063 8.58234375 -14.95328125 8.1646875 -14.4140625 7.734375 C-12.80573345 6.45694619 -11.18631963 5.19515689 -9.5625 3.9375 C-8.59441406 3.18339844 -7.62632812 2.42929687 -6.62890625 1.65234375 C-4 0 -4 0 0 0 Z " fill="#FCFCFC" transform="translate(506,433)"/>
<path d="M0 0 C8.14146343 5.2228256 11.24851575 13.70901265 13.53515625 22.7421875 C18.21577663 45.47662935 16.45180572 72.09638856 6 93 C5.4946875 94.05703125 4.989375 95.1140625 4.46875 96.203125 C-7.04176765 120.00463535 -23.2363056 140.29325255 -43.30078125 157.51953125 C-44.57729445 158.63171172 -45.80283014 159.80283014 -47 161 C-49.625 160.625 -49.625 160.625 -52 160 C-53.42106097 153.3491461 -54.75016583 146.68518606 -56 140 C-56.15968262 139.15034668 -56.31936523 138.30069336 -56.48388672 137.42529297 C-63.31074159 99.59962475 -60.33111693 58.12784012 -38.48291016 25.4440918 C-29.84493807 13.13711969 -16.71057218 -4.12041506 0 0 Z " fill="#FCFBFA" transform="translate(555,209)"/>
<path d="M0 0 C0.8146875 0.00257813 1.629375 0.00515625 2.46875 0.0078125 C3.2834375 0.00523437 4.098125 0.00265625 4.9375 0 C6.96875 0.1328125 6.96875 0.1328125 7.96875 1.1328125 C10.0870633 1.50628923 12.21391595 1.83190879 14.34375 2.1328125 C17.70821018 2.61025252 20.74369297 3.05779349 23.96875 4.1328125 C23.96875 4.7928125 23.96875 5.4528125 23.96875 6.1328125 C24.84402344 6.39191406 25.71929688 6.65101563 26.62109375 6.91796875 C29.9740189 8.13472455 32.56398014 9.60760911 35.53125 11.5703125 C38.22520528 13.33953419 40.90341185 15.09406217 43.67578125 16.73828125 C48.10106183 19.42963588 50.36574605 22.76052958 52.96875 27.1328125 C53.52433594 27.94878906 54.07992187 28.76476562 54.65234375 29.60546875 C59.10410634 36.17900683 61.81935888 42.51317005 63.96875 50.1328125 C64.51208984 51.72029297 64.51208984 51.72029297 65.06640625 53.33984375 C66.21289962 58.15908643 66.18603943 62.63992719 66.09375 67.5703125 C66.08472656 68.49263672 66.07570313 69.41496094 66.06640625 70.36523438 C66.0430266 72.62137059 66.01025916 74.87694934 65.96875 77.1328125 C65.30875 77.1328125 64.64875 77.1328125 63.96875 77.1328125 C63.95457031 77.70386719 63.94039062 78.27492188 63.92578125 78.86328125 C63.2610154 90.16430071 58.7336022 99.64257254 52.421875 108.890625 C50.8229328 111.15263564 50.8229328 111.15263564 49.96875 114.1328125 C48.4375 115.67578125 48.4375 115.67578125 46.46875 117.3203125 C43.38355757 119.92534082 40.37877484 122.58742517 37.40625 125.3203125 C28.63804612 133.1328125 28.63804612 133.1328125 23.96875 133.1328125 C23.82252197 132.3807251 23.67629395 131.6286377 23.52563477 130.85375977 C22.86481344 127.46682113 22.1981131 124.08106649 21.53125 120.6953125 C21.30115234 119.51130859 21.07105469 118.32730469 20.83398438 117.10742188 C20.61162109 115.98271484 20.38925781 114.85800781 20.16015625 113.69921875 C19.95592041 112.65709229 19.75168457 111.61496582 19.54125977 110.54125977 C19.20598759 108.19524721 19.20598759 108.19524721 17.96875 107.1328125 C17.46987235 104.23872106 17.01739946 101.35057546 16.59375 98.4453125 C15.50689428 91.21911711 14.1913719 84.13166471 12.51953125 77.015625 C12.00136425 74.30351688 11.86213197 71.88457318 11.96875 69.1328125 C11.30875 69.1328125 10.64875 69.1328125 9.96875 69.1328125 C9.78699219 68.05644531 9.60523438 66.98007812 9.41796875 65.87109375 C8.0340183 57.79572897 6.52758134 49.81700632 4.51953125 41.8671875 C3.98363161 39.20669283 3.86509323 36.83776049 3.96875 34.1328125 C3.30875 34.1328125 2.64875 34.1328125 1.96875 34.1328125 C1.63155953 31.57076706 1.29887847 29.00826932 0.96875 26.4453125 C0.87335937 25.72408203 0.77796875 25.00285156 0.6796875 24.25976562 C0.20191265 20.52288379 -0.15044794 16.90989719 -0.03125 13.1328125 C-0.69125 13.1328125 -1.35125 13.1328125 -2.03125 13.1328125 C-2.22522476 11.15426992 -2.41126321 9.1749477 -2.59375 7.1953125 C-2.69816406 6.09316406 -2.80257812 4.99101563 -2.91015625 3.85546875 C-2.95011719 2.95699219 -2.99007812 2.05851563 -3.03125 1.1328125 C-2.03125 0.1328125 -2.03125 0.1328125 0 0 Z " fill="#FDFDFD" transform="translate(542.03125,525.8671875)"/>
<path d="M0 0 C0.66 0.33 1.32 0.66 2 1 C-2.62 5.62 -7.24 10.24 -12 15 C-12.33 14.34 -12.66 13.68 -13 13 C-9.13242719 8.04467233 -4.81123996 4.03523352 0 0 Z M-16 15 C-15.01 15.33 -14.02 15.66 -13 16 C-14.28965176 17.37562854 -15.62689293 18.70766393 -17 20 C-17.66 20 -18.32 20 -19 20 C-17.125 16.125 -17.125 16.125 -16 15 Z " fill="#B9B4A1" transform="translate(479,451)"/>
<path d="M0 0 C0.66 0.33 1.32 0.66 2 1 C-1.3 4.3 -4.6 7.6 -8 11 C-8.66 10.67 -9.32 10.34 -10 10 C-8.38405168 7.95880212 -6.7143618 5.95927063 -5 4 C-4.34 4 -3.68 4 -3 4 C-3 3.34 -3 2.68 -3 2 C-2.01 1.34 -1.02 0.68 0 0 Z " fill="#4A4238" transform="translate(451,741)"/>
</svg>
