<?xml version="1.0" encoding="UTF-8"?>
<svg version="1.1" xmlns="http://www.w3.org/2000/svg" width="1001" height="1001">
<path d="M0 0 C330.33 0 660.66 0 1001 0 C1001 330.33 1001 660.66 1001 1001 C670.67 1001 340.34 1001 0 1001 C0 670.67 0 340.34 0 0 Z " fill="#FEFEFE" transform="translate(0,0)"/>
<path d="M0 0 C4.69557647 -0.09954745 9.39052663 -0.17178467 14.08691406 -0.21972656 C15.68142408 -0.23973053 17.27586178 -0.26694301 18.87011719 -0.30175781 C35.37589879 -0.65294466 35.37589879 -0.65294466 42 4 C46.76270412 9.12906598 47.29487989 12.42024921 47.21484375 19.25 C46.72508139 25.51895824 42.61892033 30.10956712 39 35 C39.49628906 35.268125 39.99257813 35.53625 40.50390625 35.8125 C46.89125475 39.49704259 51.60862289 44.04902913 55.4375 50.375 C56.91733386 57.28089137 56.5864246 63.5366905 53.390625 69.89453125 C49.81572141 75.30709595 44.57351775 79.61889038 38.34765625 81.57421875 C32.93592863 82.55571344 27.46901495 82.23368802 22 82 C21.1126416 81.96326172 20.2252832 81.92652344 19.31103516 81.88867188 C13.20540658 81.62828629 7.10232602 81.32843896 1 81 C1 80.34 1 79.68 1 79 C3.97 78.505 3.97 78.505 7 78 C7.79990675 73.78152036 8.12632316 69.79849804 8.12939453 65.50732422 C8.13254669 64.23936005 8.13569885 62.97139587 8.13894653 61.66500854 C8.13715686 60.29490117 8.13510593 58.92479412 8.1328125 57.5546875 C8.13348682 56.13794946 8.13445792 54.72121153 8.13571167 53.30447388 C8.13718164 50.34408459 8.13505601 47.38372559 8.13037109 44.42333984 C8.12466376 40.63265013 8.12796358 36.84203107 8.13394356 33.05134392 C8.13755919 30.1293993 8.13640615 27.2074714 8.13381577 24.28552628 C8.13314982 22.88770667 8.13396331 21.48988554 8.13629532 20.09206772 C8.13883939 18.13934102 8.13427326 16.18660898 8.12939453 14.23388672 C8.12859894 13.12391327 8.12780334 12.01393982 8.12698364 10.87033081 C8.01767948 8.39962588 7.71893254 6.3535797 7 4 C4.69 3.34 2.38 2.68 0 2 C0 1.34 0 0.68 0 0 Z " fill="#140706" transform="translate(519,423)"/>
<path d="M0 0 C4.69560343 -0.07466101 9.39085443 -0.12884101 14.08691406 -0.16479492 C15.68137641 -0.17979745 17.27579808 -0.20020621 18.87011719 -0.22631836 C21.17393077 -0.26308134 23.4771946 -0.27981155 25.78125 -0.29296875 C26.48366821 -0.30845261 27.18608643 -0.32393646 27.90979004 -0.33988953 C33.82542087 -0.34186047 39.3964776 0.82628111 44.05859375 4.71875 C44.74115234 5.60046875 44.74115234 5.60046875 45.4375 6.5 C45.91058594 7.0878125 46.38367188 7.675625 46.87109375 8.28125 C49.45637495 12.21731826 49.55995384 16.45727589 49 21 C47.52861707 25.97747826 45.50628295 29.778568 41.6875 33.3125 C40.800625 34.199375 39.91375 35.08625 39 36 C39.2244908 39.61430194 41.18883656 41.78531577 43.4375 44.5 C44.15550781 45.36882812 44.87351562 46.23765625 45.61328125 47.1328125 C46.40089844 48.07898438 47.18851563 49.02515625 48 50 C48.84938052 51.05851454 49.69699935 52.1184448 50.54296875 53.1796875 C51.40323053 54.24512712 52.26390085 55.31023703 53.125 56.375 C53.91132812 57.35210937 54.69765625 58.32921875 55.5078125 59.3359375 C59.19905112 63.2817443 63.02927266 66.14398745 68.375 67.25 C70.169375 67.62125 70.169375 67.62125 72 68 C72 68.33 72 68.66 72 69 C69.29057607 69.10861833 66.585561 69.18758577 63.875 69.25 C63.11445312 69.28351563 62.35390625 69.31703125 61.5703125 69.3515625 C54.99466876 69.46493567 51.56997135 67.47428093 46.796875 62.87890625 C41.58086471 56.97605491 36.71157951 50.87399777 31.96875 44.58984375 C30.2407515 42.19575165 30.2407515 42.19575165 29 41 C26.81707226 40.76518307 24.62796826 40.58636677 22.4375 40.4375 C21.23996094 40.35371094 20.04242187 40.26992188 18.80859375 40.18359375 C17.41833984 40.09271484 17.41833984 40.09271484 16 40 C16.1395053 43.39612414 16.28772322 46.79181458 16.4375 50.1875 C16.47681641 51.14720703 16.51613281 52.10691406 16.55664062 53.09570312 C16.59853516 54.02705078 16.64042969 54.95839844 16.68359375 55.91796875 C16.72025146 56.77156982 16.75690918 57.6251709 16.79467773 58.50463867 C17.00531094 61.06454594 17.44841536 63.49333243 18 66 C20.31 66.66 22.62 67.32 25 68 C25 68.33 25 68.66 25 69 C17.08 69 9.16 69 1 69 C2.65 67.35 4.3 65.7 6 64 C6.71534265 61.08957055 6.71534265 61.08957055 6.56762695 57.92456055 C6.5672493 56.72369308 6.56687164 55.52282562 6.56648254 54.28556824 C6.54067612 52.99894791 6.51486969 51.71232758 6.48828125 50.38671875 C6.47894787 49.04866357 6.47183423 47.71059123 6.46684265 46.37251282 C6.44781319 42.86217514 6.39875053 39.35288302 6.34332275 35.84295654 C6.29204083 32.25677635 6.26930974 28.67042608 6.24414062 25.08398438 C6.19062549 18.0555619 6.10536371 11.02783124 6 4 C4.02 3.34 2.04 2.68 0 2 C0 1.34 0 0.68 0 0 Z " fill="#170A08" transform="translate(590,435)"/>
<path d="M0 0 C7.9836059 0.96770981 14.6386091 6.28919055 20 12 C29.77548469 25.37106526 32.98434909 40.74473616 30.71582031 57.04150391 C27.48730703 74.29630613 17.94211379 88.58220432 4 99 C-1.00510158 102.28334664 -6.30696847 104.23809673 -12 106 C-13.485 106.495 -13.485 106.495 -15 107 C-17.57265818 107.07029121 -20.11641431 107.09370832 -22.6875 107.0625 C-23.38939453 107.05798828 -24.09128906 107.05347656 -24.81445312 107.04882812 C-26.54300538 107.03706927 -28.27151365 107.01913454 -30 107 C-27.41967783 103.99711636 -24.45941551 102.61287011 -20.9375 100.875 C-4.2407131 92.01585945 5.63004513 76.92331752 11.45703125 59.23046875 C16.48642429 38.57015632 11.84694947 19.97949398 1.28125 2.08984375 C0.64703125 1.05537109 0.64703125 1.05537109 0 0 Z " fill="#110709" transform="translate(206,411)"/>
<path d="M0 0 C5.78000129 -0.07475627 11.55971446 -0.12888603 17.34008789 -0.16479492 C19.3020519 -0.17978159 21.26398298 -0.20017793 23.22583008 -0.22631836 C37.6195397 -0.4131545 51.25824242 -0.58510823 63 9 C70.13147823 17.24081929 73.46947018 25.70531765 73.27734375 36.69921875 C72.24744265 45.24304621 68.82299637 52.73012251 63 59 C62.42507813 59.62777344 61.85015625 60.25554687 61.2578125 60.90234375 C52.94346492 69.06144418 42.72575131 70.47241089 31.46289062 70.40039062 C30.12109152 70.37119626 28.77929464 70.34189896 27.4375 70.3125 C26.09181088 70.30096506 24.74610547 70.29119295 23.40039062 70.28320312 C15.88947601 70.19814599 8.46561106 69.83233788 1 69 C1 68.34 1 67.68 1 67 C1.639375 66.71125 2.27875 66.4225 2.9375 66.125 C5.15206079 65.17176549 5.15206079 65.17176549 6 63 C6.09110781 61.12080452 6.11752837 59.23833208 6.11352539 57.35693359 C6.11344986 56.17586029 6.11337433 54.99478699 6.11329651 53.77792358 C6.10555458 51.85757797 6.10555458 51.85757797 6.09765625 49.8984375 C6.09553383 47.93833237 6.09553383 47.93833237 6.09336853 45.93862915 C6.08954894 42.46323742 6.07972342 38.98788743 6.06866455 35.51251221 C6.05843843 31.96668055 6.05386833 28.42084215 6.04882812 24.875 C6.03810066 17.91664951 6.02103092 10.95832676 6 4 C4.02 3.34 2.04 2.68 0 2 C0 1.34 0 0.68 0 0 Z M17 5 C16.88537231 6.76337679 16.84036979 8.53132671 16.82299805 10.29833984 C16.81016281 11.4297641 16.79732758 12.56118835 16.78410339 13.72689819 C16.77671646 14.95913116 16.76932953 16.19136414 16.76171875 17.4609375 C16.753647 18.71758209 16.74557526 19.97422668 16.73725891 21.26895142 C16.72339826 23.93389595 16.71238747 26.5987159 16.70483398 29.26367188 C16.69376625 32.67933718 16.65936786 36.09435154 16.61966228 39.50978661 C16.58725254 42.76427274 16.5827218 46.01881456 16.57421875 49.2734375 C16.55671066 50.50162201 16.53920258 51.72980652 16.52116394 52.99520874 C16.52408951 54.13293732 16.52701508 55.27066589 16.5300293 56.44287109 C16.52416306 57.44579193 16.51829681 58.44871277 16.51225281 59.48202515 C16.77479309 62.12822105 16.77479309 62.12822105 18.86921692 63.80435181 C25.75678643 67.66917977 35.93890693 66.7963667 43.3125 64.75 C50.38913261 62.33522489 56.00686762 58.372521 60 52 C64.05209163 41.96841734 64.06344564 33.03603086 60.3828125 22.93359375 C56.29916958 14.27027218 49.7830588 9.37700807 41 6 C36.00664677 4.22270478 21.0997216 0.9002784 17 5 Z " fill="#120807" transform="translate(703,435)"/>
<path d="M0 0 C5.78000129 -0.07475627 11.55971446 -0.12888603 17.34008789 -0.16479492 C19.3020519 -0.17978159 21.26398298 -0.20017793 23.22583008 -0.22631836 C37.6195397 -0.4131545 51.25824242 -0.58510823 63 9 C70.13147823 17.24081929 73.46947018 25.70531765 73.27734375 36.69921875 C72.24744265 45.24304621 68.82299637 52.73012251 63 59 C62.42507813 59.62777344 61.85015625 60.25554687 61.2578125 60.90234375 C52.94346492 69.06144418 42.72575131 70.47241089 31.46289062 70.40039062 C30.12109152 70.37119626 28.77929464 70.34189896 27.4375 70.3125 C26.09181088 70.30096506 24.74610547 70.29119295 23.40039062 70.28320312 C15.88947601 70.19814599 8.46561106 69.83233788 1 69 C1 68.34 1 67.68 1 67 C1.639375 66.71125 2.27875 66.4225 2.9375 66.125 C5.15206079 65.17176549 5.15206079 65.17176549 6 63 C6.09110781 61.12080452 6.11752837 59.23833208 6.11352539 57.35693359 C6.11344986 56.17586029 6.11337433 54.99478699 6.11329651 53.77792358 C6.10555458 51.85757797 6.10555458 51.85757797 6.09765625 49.8984375 C6.09553383 47.93833237 6.09553383 47.93833237 6.09336853 45.93862915 C6.08954894 42.46323742 6.07972342 38.98788743 6.06866455 35.51251221 C6.05843843 31.96668055 6.05386833 28.42084215 6.04882812 24.875 C6.03810066 17.91664951 6.02103092 10.95832676 6 4 C4.02 3.34 2.04 2.68 0 2 C0 1.34 0 0.68 0 0 Z M17 5 C16.88537231 6.76337679 16.84036979 8.53132671 16.82299805 10.29833984 C16.81016281 11.4297641 16.79732758 12.56118835 16.78410339 13.72689819 C16.77671646 14.95913116 16.76932953 16.19136414 16.76171875 17.4609375 C16.753647 18.71758209 16.74557526 19.97422668 16.73725891 21.26895142 C16.72339826 23.93389595 16.71238747 26.5987159 16.70483398 29.26367188 C16.69376625 32.67933718 16.65936786 36.09435154 16.61966228 39.50978661 C16.58725254 42.76427274 16.5827218 46.01881456 16.57421875 49.2734375 C16.55671066 50.50162201 16.53920258 51.72980652 16.52116394 52.99520874 C16.52408951 54.13293732 16.52701508 55.27066589 16.5300293 56.44287109 C16.52416306 57.44579193 16.51829681 58.44871277 16.51225281 59.48202515 C16.77479309 62.12822105 16.77479309 62.12822105 18.86921692 63.80435181 C25.75678643 67.66917977 35.93890693 66.7963667 43.3125 64.75 C50.38913261 62.33522489 56.00686762 58.372521 60 52 C64.05209163 41.96841734 64.06344564 33.03603086 60.3828125 22.93359375 C56.29916958 14.27027218 49.7830588 9.37700807 41 6 C36.00664677 4.22270478 21.0997216 0.9002784 17 5 Z " fill="#120807" transform="translate(430,435)"/>
<path d="M0 0 C4.35432986 0.85423184 6.21445655 2.87681742 9.3125 6.0625 C10.21613281 6.98160156 11.11976563 7.90070313 12.05078125 8.84765625 C14.17469556 11.07773042 16.19513996 13.3768505 18.19921875 15.71484375 C22.70470152 20.90277011 27.60935416 25.67852878 32.5 30.5 C37.99442158 35.91670699 43.39773567 41.32233563 48.41210938 47.18945312 C50.81412652 49.92828448 53.39314145 52.45672336 56 55 C56.1593085 38.64432779 55.67055824 22.34129019 55 6 C52.36 5.01 49.72 4.02 47 3 C47 2.34 47 1.68 47 1 C54.26 1 61.52 1 69 1 C69 1.66 69 2.32 69 3 C68.195625 3.28875 67.39125 3.5775 66.5625 3.875 C63.8673532 4.73262568 63.8673532 4.73262568 63 7 C62.87962039 9.03160472 62.82260878 11.0670744 62.79467773 13.10205078 C62.77473251 14.38322784 62.75478729 15.66440491 62.73423767 16.98440552 C62.71725331 18.38803994 62.70037451 19.79167563 62.68359375 21.1953125 C62.6630246 22.62735597 62.64202814 24.05939337 62.62062073 25.49142456 C62.56539597 29.26266563 62.51598853 33.03396152 62.46777344 36.80529785 C62.41756133 40.65280036 62.36187376 44.50022313 62.30664062 48.34765625 C62.19905413 55.89837 62.09761029 63.44915 62 71 C58.46839848 69.65349189 56.03386559 68.42460221 53.29296875 65.8046875 C52.29511353 64.8602478 52.29511353 64.8602478 51.27709961 63.89672852 C50.58753174 63.22955811 49.89796387 62.5623877 49.1875 61.875 C48.47408447 61.19429443 47.76066895 60.51358887 47.02563477 59.81225586 C45.00911629 57.88290079 43.00272056 55.94366052 41 54 C40.14921875 53.17886719 39.2984375 52.35773438 38.421875 51.51171875 C35.41571554 48.55881802 32.56693069 45.52980812 29.83203125 42.32421875 C25.84753657 37.74829623 21.57610323 33.50060405 17.25 29.25 C15.75284743 27.77843978 14.25796734 26.30456316 12.765625 24.828125 C12.11368164 24.1877832 11.46173828 23.54744141 10.79003906 22.88769531 C9.02093941 21.02208177 7.4986495 19.08653672 6 17 C5.89066506 28.55305877 5.99448333 40.07882557 6.4375 51.625 C6.47673584 52.709021 6.51597168 53.79304199 6.55639648 54.90991211 C6.59837158 55.92190674 6.64034668 56.93390137 6.68359375 57.9765625 C6.72025146 58.87455566 6.75690918 59.77254883 6.79467773 60.69775391 C6.92499738 63.15950087 6.92499738 63.15950087 8 66 C11.51190809 67.22969878 11.51190809 67.22969878 15 68 C15 68.66 15 69.32 15 70 C7.41 70 -0.18 70 -8 70 C-8 69.34 -8 68.68 -8 68 C-7.030625 67.71125 -6.06125 67.4225 -5.0625 67.125 C-1.89335797 66.35785318 -1.89335797 66.35785318 -1 64 C-0.87962039 61.96839528 -0.82260878 59.9329256 -0.79467773 57.89794922 C-0.77473251 56.61677216 -0.75478729 55.33559509 -0.73423767 54.01559448 C-0.71725331 52.61196006 -0.70037451 51.20832437 -0.68359375 49.8046875 C-0.6630246 48.37264403 -0.64202814 46.94060663 -0.62062073 45.50857544 C-0.56539597 41.73733437 -0.51598853 37.96603848 -0.46777344 34.19470215 C-0.41756133 30.34719964 -0.36187376 26.49977687 -0.30664062 22.65234375 C-0.19905413 15.10163 -0.09761029 7.55085 0 0 Z " fill="#150907" transform="translate(348,434)"/>
<path d="M0 0 C1.00426025 0.00837891 2.00852051 0.01675781 3.04321289 0.02539062 C10.1234272 0.14004068 16.69638821 0.79390016 23.625 2.3125 C23.625 7.9225 23.625 13.5325 23.625 19.3125 C22.965 19.3125 22.305 19.3125 21.625 19.3125 C21.45484375 18.76980469 21.2846875 18.22710937 21.109375 17.66796875 C20.86703125 16.95253906 20.6246875 16.23710937 20.375 15.5 C20.02695312 14.43845703 20.02695312 14.43845703 19.671875 13.35546875 C17.98921475 10.07176983 15.67289995 8.74409269 12.3203125 7.36328125 C0.75633067 4.041712 -9.07774236 3.80011821 -19.8515625 9.51171875 C-25.73229718 13.70834211 -28.43763264 19.52674663 -30.375 26.3125 C-31.75079935 35.7919087 -29.39276824 46.65823296 -23.86328125 54.50390625 C-17.1094069 62.71137035 -9.3605411 66.37372359 1.25 67.62109375 C6.09236746 67.76014822 8.75792122 66.93485959 13.625 65.3125 C13.625 57.0625 13.625 48.8125 13.625 40.3125 C10.16 38.8275 10.16 38.8275 6.625 37.3125 C6.625 36.6525 6.625 35.9925 6.625 35.3125 C14.545 35.3125 22.465 35.3125 30.625 35.3125 C30.625 35.9725 30.625 36.6325 30.625 37.3125 C29.820625 37.60125 29.01625 37.89 28.1875 38.1875 C25.4923532 39.04512568 25.4923532 39.04512568 24.625 41.3125 C24.47088894 43.3432477 24.37517547 45.37856421 24.30859375 47.4140625 C24.26669922 48.62578125 24.22480469 49.8375 24.18164062 51.0859375 C24.14232422 52.35695313 24.10300781 53.62796875 24.0625 54.9375 C23.99772461 56.855625 23.99772461 56.855625 23.93164062 58.8125 C23.82530114 61.97905348 23.72327167 65.14568753 23.625 68.3125 C16.16760944 71.47520446 9.78235274 72.97739382 1.6875 72.8125 C0.7281958 72.80041504 -0.2311084 72.78833008 -1.21948242 72.77587891 C-13.00313137 72.44647576 -23.75377013 69.18554398 -32.12109375 60.5 C-39.74334777 51.07197507 -41.60828562 41.20360364 -40.65429688 29.36181641 C-39.48106823 20.75335378 -35.1153059 13.1292473 -28.41015625 7.73046875 C-19.58317713 1.35456644 -10.72946453 -0.19350124 0 0 Z " fill="#180A08" transform="translate(828.375,433.6875)"/>
<path d="M0 0 C7.59 0 15.18 0 23 0 C23 0.66 23 1.32 23 2 C21.35 2.33 19.7 2.66 18 3 C17.92538512 9.22555982 17.8711791 15.45085456 17.83520508 21.67675781 C17.82019513 23.7910618 17.7997808 25.90533507 17.77368164 28.01953125 C17.73695367 31.07299421 17.72019526 34.12604257 17.70703125 37.1796875 C17.69154739 38.11239471 17.67606354 39.04510193 17.66011047 40.006073 C17.65839647 46.81525212 18.07323162 54.53577935 22.64533997 59.94747925 C27.03875929 64.03879294 31.3575385 65.70085342 37.3125 66.375 C43.28244301 65.76788715 48.16841821 63.83158179 52.4375 59.5625 C57.12109439 51.8814052 57.14885655 43.88405697 57.09765625 35.12890625 C57.09553383 33.74541237 57.09553383 33.74541237 57.09336853 32.33396912 C57.08780506 29.41011202 57.07525942 26.48633365 57.0625 23.5625 C57.05748028 21.57096465 57.0529182 19.5794281 57.04882812 17.58789062 C57.03784762 12.72523044 57.02060839 7.86262853 57 3 C54.69 2.67 52.38 2.34 50 2 C50 1.34 50 0.68 50 0 C56.93 0 63.86 0 71 0 C71 0.66 71 1.32 71 2 C69.35 2.33 67.7 2.66 66 3 C65.98018066 4.25546631 65.96036133 5.51093262 65.93994141 6.80444336 C65.86344064 11.49555344 65.77479417 16.1863712 65.68261719 20.87719727 C65.64451021 22.90122678 65.60962662 24.9253198 65.578125 26.94946289 C65.53207489 29.87148627 65.47414916 32.79307924 65.4140625 35.71484375 C65.40251129 36.60896469 65.39096008 37.50308563 65.37905884 38.42430115 C65.16867806 47.53225355 63.98640614 55.83742338 58 63 C49.84284725 70.58531111 41.8473295 71.57289329 31.14453125 71.3046875 C23.82742397 70.90757156 19.15848456 68.53307883 14.125 63.25 C8.18823918 56.42415905 7.5454991 48.79637028 7.48828125 40.15625 C7.47033005 39.14655151 7.45237885 38.13685303 7.43388367 37.09655762 C7.38005901 33.89774651 7.34597429 30.69908223 7.3125 27.5 C7.27930237 25.32029219 7.24481047 23.14060369 7.20898438 20.9609375 C7.12434889 15.64075676 7.05588215 10.32055633 7 5 C4.69 4.01 2.38 3.02 0 2 C0 1.34 0 0.68 0 0 Z " fill="#130806" transform="translate(257,435)"/>
<path d="M0 0 C0.74636719 -0.00773437 1.49273437 -0.01546875 2.26171875 -0.0234375 C3.35419922 -0.01957031 3.35419922 -0.01957031 4.46875 -0.015625 C5.12294922 -0.01336914 5.77714844 -0.01111328 6.45117188 -0.00878906 C8.5 0.25 8.5 0.25 13.5 2.25 C13.5 6.87 13.5 11.49 13.5 16.25 C12.84 15.92 12.18 15.59 11.5 15.25 C11.231875 14.13625 10.96375 13.0225 10.6875 11.875 C9.85614785 8.20718516 9.85614785 8.20718516 7.3359375 6.54296875 C3.98405167 5.01476736 1.60889425 4.8821951 -2.0625 4.9375 C-3.17753906 4.94136719 -4.29257813 4.94523437 -5.44140625 4.94921875 C-8.4179842 5.24193459 -10.08342801 5.52387715 -12.5 7.25 C-15.3774702 11.5662053 -15.30218984 16.26280089 -14.5 21.25 C-11.72885804 27.89819837 -5.2374316 31.9560353 0.30834961 36.17236328 C6.91919068 41.23025128 12.23909686 46.45587602 15.5 54.25 C16.36239811 61.38226545 16.77187773 69.2847709 12.90234375 75.60546875 C9.04344086 80.13081169 4.18201091 83.49490777 -1.5 85.25 C-4.33674511 85.46541358 -7.04183445 85.57488272 -9.875 85.5625 C-10.96941406 85.58666992 -10.96941406 85.58666992 -12.0859375 85.61132812 C-17.28034883 85.61596599 -20.8684516 84.6136455 -25.5 82.25 C-26.5 81.25 -26.5 81.25 -26.6328125 78.66796875 C-26.63023438 77.60191406 -26.62765625 76.53585937 -26.625 75.4375 C-26.62757812 74.37917969 -26.63015625 73.32085937 -26.6328125 72.23046875 C-26.52063661 69.71310983 -26.2309121 67.64576745 -25.5 65.25 C-24.84 65.25 -24.18 65.25 -23.5 65.25 C-23.37625 65.91386719 -23.2525 66.57773437 -23.125 67.26171875 C-21.99675974 72.09199735 -21.03982658 75.5097197 -16.8125 78.375 C-11.19306271 81.27734673 -6.80642234 80.9419267 -0.75 79.125 C3.17326733 76.86157654 4.62253811 75.38041615 6.5 71.25 C7.53170644 65.97484013 7.11776801 61.53939868 4.375 56.875 C0.81658322 52.07665756 -3.74178279 48.42800932 -8.30834961 44.63256836 C-15.56982559 38.59601291 -22.53061645 32.50403874 -23.84765625 22.6484375 C-24.21236773 15.85919296 -22.9528744 11.41045444 -18.5 6.25 C-12.77454995 0.81082245 -7.59350001 -0.07868912 0 0 Z " fill="#1C0D0B" transform="translate(122.5,420.75)"/>
<path d="M0 0 C12.95568969 5.89131966 18.3307813 12.10813263 24 25 C27.78132074 36.34396223 25.20730202 51.18100013 20.1796875 61.75 C13.1533984 75.15113419 3.32476017 83.22507994 -11 88 C-13.39490986 88.06970052 -15.79167691 88.08448003 -18.1875 88.0625 C-20.09595703 88.04896484 -20.09595703 88.04896484 -22.04296875 88.03515625 C-23.01878906 88.02355469 -23.99460938 88.01195312 -25 88 C-22.21816306 85.82927598 -19.38603732 84.03981807 -16.3125 82.3125 C-3.05421766 74.3575306 4.51137705 63.72098142 9 49 C9.35578125 47.87980469 9.7115625 46.75960937 10.078125 45.60546875 C13.30957086 32.96722921 10.72348986 19.31865193 4.33203125 8.0625 C3.30904143 6.54623955 2.24935673 5.05331684 1.13671875 3.6015625 C0 2 0 2 0 0 Z " fill="#12080A" transform="translate(191,415)"/>
<path d="M0 0 C-0.33 3.96 -0.66 7.92 -1 12 C-1.66 12 -2.32 12 -3 12 C-3.3403125 10.7934375 -3.3403125 10.7934375 -3.6875 9.5625 C-4.120625 8.716875 -4.55375 7.87125 -5 7 C-9.00476367 5.82212833 -13.16329728 5.70894317 -17.3125 5.4375 C-19.519375 5.293125 -21.72625 5.14875 -24 5 C-24 13.58 -24 22.16 -24 31 C-21.48375 30.87625 -18.9675 30.7525 -16.375 30.625 C-15.59431152 30.59100098 -14.81362305 30.55700195 -14.00927734 30.52197266 C-9.70136823 30.28027479 -6.06488294 29.57722587 -2 28 C-0.5447223 30.9105554 -1.36483339 32.95849052 -1.9375 36.125 C-2.13214844 37.22070312 -2.32679688 38.31640625 -2.52734375 39.4453125 C-2.76130859 40.70988281 -2.76130859 40.70988281 -3 42 C-3.99 41.505 -3.99 41.505 -5 41 C-5.33333333 39.66666667 -5.66666667 38.33333333 -6 37 C-9.16965142 35.41517429 -12.63744541 35.62147177 -16.125 35.4375 C-18.72375 35.293125 -21.3225 35.14875 -24 35 C-23.67 44.24 -23.34 53.48 -23 63 C-19.00802941 64.99598529 -17.37379905 65.27174678 -13.0625 65.25 C-12.04285156 65.25515625 -11.02320313 65.2603125 -9.97265625 65.265625 C-6.88404366 64.98963859 -4.73795225 64.4455622 -2 63 C-0.15725024 59.98303591 -0.15725024 59.98303591 1 57 C1.33 57 1.66 57 2 57 C2.05437607 58.58294782 2.09296271 60.16644256 2.125 61.75 C2.14820313 62.63171875 2.17140625 63.5134375 2.1953125 64.421875 C1.98938266 67.1401489 1.27258701 68.63096259 0 71 C-13.37590974 71.11978427 -26.65013933 70.85439108 -40 70 C-40 69.34 -40 68.68 -40 68 C-39.360625 67.71125 -38.72125 67.4225 -38.0625 67.125 C-35.84793921 66.17176549 -35.84793921 66.17176549 -35 64 C-34.90889219 62.12080452 -34.88247163 60.23833208 -34.88647461 58.35693359 C-34.88655014 57.17586029 -34.88662567 55.99478699 -34.88670349 54.77792358 C-34.89444542 52.85757797 -34.89444542 52.85757797 -34.90234375 50.8984375 C-34.90446617 48.93833237 -34.90446617 48.93833237 -34.90663147 46.93862915 C-34.91045106 43.46323742 -34.92027658 39.98788743 -34.93133545 36.51251221 C-34.94156157 32.96668055 -34.94613167 29.42084215 -34.95117188 25.875 C-34.96189934 18.91664951 -34.97896908 11.95832676 -35 5 C-36.98 4.34 -38.96 3.68 -41 3 C-41 2.34 -41 1.68 -41 1 C-35.48243025 0.85725841 -29.96485203 0.71485012 -24.44726562 0.57275391 C-22.56933356 0.52434355 -20.69140386 0.47584129 -18.81347656 0.42724609 C-16.11784468 0.35750694 -13.42220453 0.28809573 -10.7265625 0.21875 C-9.88380768 0.19687622 -9.04105286 0.17500244 -8.17276001 0.15246582 C-2.22774341 0 -2.22774341 0 0 0 Z " fill="#150A08" transform="translate(914,434)"/>
<path d="M0 0 C14.11546473 -0.27475357 14.11546473 -0.27475357 20.015625 4.69921875 C26.43945806 11.56840159 28.59158953 18.10024051 28.28125 27.44921875 C27.89672936 30.93660734 27.07524507 33.16383174 25 36 C19.52027211 40.22395692 14.90247579 41.73069687 8 41 C2.7506364 39.05579126 2.7506364 39.05579126 0.84814453 36.37988281 C-0.35819753 32.99490227 -0.24593 29.71747025 -0.1953125 26.171875 C-0.1924826 25.42286926 -0.18965271 24.67386353 -0.18673706 23.90216064 C-0.1755726 21.51794224 -0.15047531 19.13410421 -0.125 16.75 C-0.11496535 15.13021377 -0.10584035 13.51042164 -0.09765625 11.890625 C-0.07564555 7.92693754 -0.04114175 3.96353319 0 0 Z " fill="#FDFCFC" transform="translate(537,460)"/>
<path d="M0 0 C7.26 0 14.52 0 22 0 C22 0.66 22 1.32 22 2 C20.35 2.66 18.7 3.32 17 4 C17 24.79 17 45.58 17 67 C20.465 67.495 20.465 67.495 24 68 C24 68.33 24 68.66 24 69 C16.08 69 8.16 69 0 69 C1.65 67.35 3.3 65.7 5 64 C5.71534265 61.08957055 5.71534265 61.08957055 5.56762695 57.92456055 C5.5672493 56.72369308 5.56687164 55.52282562 5.56648254 54.28556824 C5.54067612 52.99894791 5.51486969 51.71232758 5.48828125 50.38671875 C5.47894787 49.04866357 5.47183423 47.71059123 5.46684265 46.37251282 C5.44781319 42.86217514 5.39875053 39.35288302 5.34332275 35.84295654 C5.29204083 32.25677635 5.26930974 28.67042608 5.24414062 25.08398438 C5.19062549 18.0555619 5.10536371 11.02783124 5 4 C2.525 3.01 2.525 3.01 0 2 C0 1.34 0 0.68 0 0 Z " fill="#1A0F0C" transform="translate(664,435)"/>
<path d="M0 0 C6.65063728 0.74953515 10.60575303 5.27915359 15 10 C20.87224013 18.74719102 21.31847235 29.46906473 19.5390625 39.6328125 C16.38770057 49.97669459 10.16514897 58.72696571 0.8515625 64.28125 C-4.26205982 66.94261478 -8.4479554 68.13884269 -14.25 68.0625 C-15.58804688 68.04896484 -15.58804688 68.04896484 -16.953125 68.03515625 C-17.62859375 68.02355469 -18.3040625 68.01195312 -19 68 C-16.33487169 65.9471309 -13.61338758 64.13629236 -10.75 62.375 C-1.40950188 56.12239682 4.73923416 47.5938086 7.609375 36.68359375 C9.10145492 26.43300469 9.08633824 16.21039628 4 7 C3.6184375 6.2884375 3.236875 5.576875 2.84375 4.84375 C1.93449137 3.20708446 0.97348529 1.59929726 0 0 Z " fill="#1D0D10" transform="translate(178,424)"/>
<path d="M0 0 C4.95565242 0.06371553 8.08304771 0.76066767 12.375 3.25 C14.6875 5.6875 14.6875 5.6875 16.375 8.25 C16.7875 8.848125 17.2 9.44625 17.625 10.0625 C19.60254867 15.83035029 18.42895048 20.99816092 16.32421875 26.48828125 C14.54937948 29.7823245 12.92994605 31.06501798 9.375 32.25 C7.32421875 32.41796875 7.32421875 32.41796875 5.0625 32.4375 C4.32386719 32.45167969 3.58523438 32.46585937 2.82421875 32.48046875 C-0.18876455 32.19695039 -2.77323992 31.23727 -5.625 30.25 C-5.64965746 26.1382744 -5.66783959 22.02657722 -5.67993164 17.91479492 C-5.6849708 16.51504772 -5.69180216 15.1153058 -5.70043945 13.71557617 C-5.7125232 11.70754223 -5.71769807 9.69947043 -5.72265625 7.69140625 C-5.72789307 6.48170166 -5.73312988 5.27199707 -5.73852539 4.02563477 C-5.55524064 -0.45557888 -4.06984027 0.07377354 0 0 Z " fill="#FCF9F9" transform="translate(611.625,438.75)"/>
<path d="M0 0 C5.22322633 -0.56751352 9.63133864 -0.91687033 13.9375 2.4375 C18.14150953 6.6713252 19.8134185 11.46661276 20.125 17.3671875 C19.81626572 23.09806763 18.07517909 26.02421552 14 30 C11.25494537 31.37252731 8.99672588 31.13229255 5.9375 31.125 C4.31134766 31.12886719 4.31134766 31.12886719 2.65234375 31.1328125 C0 31 0 31 -1 30 C-1.09996094 27.95117803 -1.13080946 25.89891431 -1.1328125 23.84765625 C-1.13410156 22.59662109 -1.13539063 21.34558594 -1.13671875 20.05664062 C-1.13285156 18.73857422 -1.12898437 17.42050781 -1.125 16.0625 C-1.12886719 14.74830078 -1.13273438 13.43410156 -1.13671875 12.08007812 C-1.13542969 10.82775391 -1.13414062 9.57542969 -1.1328125 8.28515625 C-1.13168457 7.12894775 -1.13055664 5.97273926 -1.12939453 4.78149414 C-1 2 -1 2 0 0 Z " fill="#FBF9F8" transform="translate(538,427)"/>
<path d="M0 0 C-0.33 0.99 -0.66 1.98 -1 3 C-11.89 2.67 -22.78 2.34 -34 2 C-33.67 2.66 -33.34 3.32 -33 4 C-32.9091762 5.78731924 -32.88246201 7.57805489 -32.88647461 9.36767578 C-32.88655014 10.48868683 -32.88662567 11.60969788 -32.88670349 12.76467896 C-32.89186478 13.97928802 -32.89702606 15.19389709 -32.90234375 16.4453125 C-32.9037587 17.68546112 -32.90517365 18.92560974 -32.90663147 20.20333862 C-32.91128904 23.50118133 -32.92027561 26.79897546 -32.93133545 30.09680176 C-32.94156269 33.46166387 -32.94613191 36.82653308 -32.95117188 40.19140625 C-32.96221731 46.79428993 -32.97896753 53.39714099 -33 60 C-33.33 60 -33.66 60 -34 60 C-34.33 41.85 -34.66 23.7 -35 5 C-36.98 4.34 -38.96 3.68 -41 3 C-41 2.34 -41 1.68 -41 1 C-35.48243025 0.85725841 -29.96485203 0.71485012 -24.44726562 0.57275391 C-22.56933356 0.52434355 -20.69140386 0.47584129 -18.81347656 0.42724609 C-16.11784468 0.35750694 -13.42220453 0.28809573 -10.7265625 0.21875 C-9.88380768 0.19687622 -9.04105286 0.17500244 -8.17276001 0.15246582 C-2.22774341 0 -2.22774341 0 0 0 Z " fill="#65332A" transform="translate(914,434)"/>
<path d="M0 0 C13.86 0 27.72 0 42 0 C42 0.33 42 0.66 42 1 C30.45 1 18.9 1 7 1 C7.33 1.66 7.66 2.32 8 3 C8.0908238 4.78731924 8.11753799 6.57805489 8.11352539 8.36767578 C8.11344986 9.48868683 8.11337433 10.60969788 8.11329651 11.76467896 C8.10813522 12.97928802 8.10297394 14.19389709 8.09765625 15.4453125 C8.0962413 16.68546112 8.09482635 17.92560974 8.09336853 19.20333862 C8.08871096 22.50118133 8.07972439 25.79897546 8.06866455 29.09680176 C8.05843731 32.46166387 8.05386809 35.82653308 8.04882812 39.19140625 C8.03778269 45.79428993 8.02103247 52.39714099 8 59 C7.67 59 7.34 59 7 59 C6.67 40.85 6.34 22.7 6 4 C4.02 3.34 2.04 2.68 0 2 C0 1.34 0 0.68 0 0 Z " fill="#67342B" transform="translate(703,435)"/>
<path d="M0 0 C13.86 0 27.72 0 42 0 C42 0.33 42 0.66 42 1 C30.45 1 18.9 1 7 1 C7.33 1.66 7.66 2.32 8 3 C8.0908238 4.78731924 8.11753799 6.57805489 8.11352539 8.36767578 C8.11344986 9.48868683 8.11337433 10.60969788 8.11329651 11.76467896 C8.10813522 12.97928802 8.10297394 14.19389709 8.09765625 15.4453125 C8.0962413 16.68546112 8.09482635 17.92560974 8.09336853 19.20333862 C8.08871096 22.50118133 8.07972439 25.79897546 8.06866455 29.09680176 C8.05843731 32.46166387 8.05386809 35.82653308 8.04882812 39.19140625 C8.03778269 45.79428993 8.02103247 52.39714099 8 59 C7.67 59 7.34 59 7 59 C6.67 40.85 6.34 22.7 6 4 C4.02 3.34 2.04 2.68 0 2 C0 1.34 0 0.68 0 0 Z " fill="#67342B" transform="translate(430,435)"/>
<path d="M0 0 C3.12498063 -0.02895976 6.2499269 -0.04678483 9.375 -0.0625 C10.70917969 -0.07506836 10.70917969 -0.07506836 12.0703125 -0.08789062 C13.34648437 -0.09272461 13.34648437 -0.09272461 14.6484375 -0.09765625 C15.43395996 -0.10289307 16.21948242 -0.10812988 17.02880859 -0.11352539 C19 0 19 0 21 1 C21 5.62 21 10.24 21 15 C20.34 14.67 19.68 14.34 19 14 C18.79375 12.906875 18.5875 11.81375 18.375 10.6875 C16.87746653 6.6594741 16.87746653 6.6594741 13.5 4.625 C8.81309447 2.60894137 4.05534404 2.20718623 -1 2 C-0.67 1.34 -0.34 0.68 0 0 Z " fill="#150806" transform="translate(115,422)"/>
<path d="M0 0 C4.75055432 -0.04956835 9.50095688 -0.08579909 14.25170898 -0.10986328 C15.86664453 -0.11989896 17.481562 -0.13353051 19.09643555 -0.15087891 C21.42240875 -0.17523465 23.74814095 -0.18650747 26.07421875 -0.1953125 C26.79212082 -0.20563507 27.51002289 -0.21595764 28.24967957 -0.22659302 C32.28499868 -0.22748903 35.36821174 0.21042318 39 2 C36 3 36 3 33 2 C31.0093556 1.85013589 29.01464609 1.75171962 27.01953125 1.68359375 C25.85615234 1.64169922 24.69277344 1.59980469 23.49414062 1.55664062 C22.27919922 1.51732422 21.06425781 1.47800781 19.8125 1.4375 C18.58595703 1.39431641 17.35941406 1.35113281 16.09570312 1.30664062 C13.06391619 1.2004691 10.03204685 1.09842048 7 1 C7 1.66 7 2.32 7 3 C4.69 2.67 2.38 2.34 0 2 C0 1.34 0 0.68 0 0 Z " fill="#421513" transform="translate(519,423)"/>
<path d="M0 0 C11.22 0 22.44 0 34 0 C34 0.33 34 0.66 34 1 C25.09 1 16.18 1 7 1 C6.67 1.99 6.34 2.98 6 4 C4.02 3.34 2.04 2.68 0 2 C0 1.34 0 0.68 0 0 Z " fill="#431311" transform="translate(590,435)"/>
<path d="M0 0 C7.59 0 15.18 0 23 0 C23 0.66 23 1.32 23 2 C22.195625 2.12375 21.39125 2.2475 20.5625 2.375 C19.716875 2.58125 18.87125 2.7875 18 3 C17.67 3.66 17.34 4.32 17 5 C17 4.01 17 3.02 17 2 C13.7 1.67 10.4 1.34 7 1 C7.33 1.99 7.66 2.98 8 4 C5.36 3.34 2.72 2.68 0 2 C0 1.34 0 0.68 0 0 Z " fill="#451412" transform="translate(257,435)"/>
<path d="M0 0 C7.26 0 14.52 0 22 0 C22 0.66 22 1.32 22 2 C20.02 2.66 18.04 3.32 16 4 C16 3.34 16 2.68 16 2 C12.7 1.67 9.4 1.34 6 1 C5.67 1.99 5.34 2.98 5 4 C2.525 3.01 2.525 3.01 0 2 C0 1.34 0 0.68 0 0 Z " fill="#411412" transform="translate(664,435)"/>
<path d="M0 0 C0 0.99 0 1.98 0 3 C2.97 3 5.94 3 9 3 C5.2632157 5.49118953 3.25548181 5.2065226 -1.1875 5.125 C-2.45980469 5.10695313 -3.73210937 5.08890625 -5.04296875 5.0703125 C-6.50669922 5.03550781 -6.50669922 5.03550781 -8 5 C-5.41495396 3.01776932 -2.95950142 1.37405423 0 0 Z " fill="#5A2A25" transform="translate(174,498)"/>
<path d="M0 0 C0 0.66 0 1.32 0 2 C2.64 2.33 5.28 2.66 8 3 C8 3.33 8 3.66 8 4 C3.05 4 -1.9 4 -7 4 C-3 0 -3 0 0 0 Z " fill="#50221E" transform="translate(183,514)"/>
<path d="M0 0 C0.66 0.33 1.32 0.66 2 1 C-1.3 4.3 -4.6 7.6 -8 11 C-8 7.0234755 -6.61988497 5.9109833 -4 3 C-1.75 1.1875 -1.75 1.1875 0 0 Z " fill="#46201B" transform="translate(802,440)"/>
</svg>
